<?xml version="1.0" encoding="UTF-8"?> <svg xmlns="http://www.w3.org/2000/svg" id="Layer_1" data-name="Layer 1" viewBox="0 0 485.1 93.6"><defs><style>.cls-1,.cls-8{fill:#8ccb7d;}.cls-1,.cls-12,.cls-2,.cls-5,.cls-6,.cls-7,.cls-9{fill-rule:evenodd;}.cls-11,.cls-2{fill:#4cbd8d;}.cls-3,.cls-5{fill:#008faa;}.cls-4,.cls-9{fill:#00abab;}.cls-14,.cls-6{fill:#0278ba;}.cls-13,.cls-7{fill:#00569d;}.cls-10{fill:#00407e;}.cls-12{fill:#4cbd8f;}.cls-15{fill:#fff;}</style></defs><title>Artboard 1</title><g id="Layer_2" data-name="Layer 2"><g id="Layer_1-2" data-name="Layer 1-2"><polygon class="cls-1" points="33.33 0.45 46.3 0.45 46.3 13.42 42.7 13.42 33.33 13.42 33.33 0.45"></polygon><polygon class="cls-2" points="48.79 0 64.15 0 64.15 15.36 62.25 15.36 48.79 15.36 48.79 0"></polygon><rect class="cls-3" x="65.38" y="0.26" width="15.36" height="15.36"></rect><rect class="cls-4" x="81.62" y="0.59" width="15.36" height="15.36"></rect><polygon class="cls-5" points="97.52 1.23 112.88 1.23 112.88 16.59 99.43 16.59 97.52 16.59 97.52 1.23"></polygon><polygon class="cls-6" points="112.88 1.23 128.24 1.23 128.24 16.59 117.14 16.59 112.88 16.59 112.88 1.23"></polygon><polygon class="cls-1" points="53.79 27.92 49.31 27.92 49.31 20.05 53.64 27.64 53.79 27.92"></polygon><polygon class="cls-1" points="63.55 16.3 65.45 16.3 65.45 19.65 63.55 16.3"></polygon><polygon class="cls-2" points="66.1 16.35 81.45 16.35 81.45 31.7 72.94 31.7 72.78 31.43 66.1 19.69 66.1 16.35"></polygon><polygon class="cls-5" points="82.17 16.59 97.52 16.59 97.52 19.93 90.84 31.66 90.69 31.94 82.17 31.94 82.17 16.59"></polygon><path class="cls-6" d="M112.88,24.07v7.87H108.4l.16-.28ZM97.52,16.58h1.91l-1.91,3.35Z"></path><polygon class="cls-7" points="117.14 16.59 128.24 16.59 128.24 31.94 112.88 31.94 112.88 24.07 117.14 16.59"></polygon><rect class="cls-8" x="34.73" y="32.21" width="12.9" height="13.6"></rect><polygon class="cls-9" points="49.79 29.16 54.27 29.16 63.02 44.52 49.79 44.52 49.79 29.16"></polygon><polygon class="cls-9" points="73.25 32.08 81.77 32.08 81.77 47.04 73.25 32.08"></polygon><polygon class="cls-5" points="82.17 31.94 90.69 31.94 82.17 46.9 82.17 46.9 82.17 31.94"></polygon><polygon class="cls-5" points="108.4 31.94 112.88 31.94 112.88 47.3 99.66 47.3 108.4 31.94"></polygon><rect class="cls-10" x="112.88" y="31.94" width="15.36" height="15.36"></rect><rect class="cls-11" x="34.35" y="47.79" width="13.76" height="13.76"></rect><polygon class="cls-12" points="50.62 45.77 63.85 45.77 65.98 49.51 65.98 61.13 50.62 61.13 50.62 45.77"></polygon><polygon class="cls-5" points="73.39 61.59 66.78 61.59 66.78 49.98 73.28 61.4 73.39 61.59"></polygon><polygon class="cls-5" points="97.52 51.04 97.52 62.65 90.91 62.65 91.02 62.45 97.52 51.04"></polygon><polygon class="cls-7" points="99.66 47.3 112.88 47.3 112.88 62.65 97.52 62.65 97.52 51.04 99.66 47.3"></polygon><rect class="cls-13" x="112.88" y="47.3" width="15.36" height="15.36"></rect><rect class="cls-3" x="35.81" y="64.17" width="12.55" height="12.56"></rect><rect class="cls-4" x="50.85" y="62.46" width="14.55" height="14.55"></rect><polygon class="cls-5" points="67.08 62.2 73.7 62.2 82.44 77.56 82.44 77.56 67.08 77.56 67.08 62.2"></polygon><path class="cls-6" d="M90.91,62.64h6.61V78H82.17Z"></path><rect class="cls-14" x="97.52" y="62.65" width="15.36" height="15.36"></rect><rect class="cls-10" x="112.88" y="62.65" width="15.36" height="15.36"></rect><rect class="cls-8" x="34.92" y="79.46" width="12.63" height="12.63"></rect><rect class="cls-4" x="50.14" y="79.16" width="13.97" height="13.97"></rect><rect class="cls-3" x="65.92" y="78.17" width="15.36" height="15.36"></rect><polygon class="cls-6" points="81.93 78.25 81.93 78.25 97.29 78.25 97.29 93.6 81.93 93.6 81.93 78.25"></polygon><rect class="cls-13" x="97.52" y="78.01" width="15.36" height="15.36"></rect><rect class="cls-10" x="112.88" y="78.01" width="15.36" height="15.36"></rect><polygon class="cls-5" points="16.67 31.24 29.49 31.24 29.49 44.05 25.93 44.05 16.67 44.05 16.67 31.24"></polygon><rect class="cls-4" x="16.26" y="53.13" width="13.34" height="13.34"></rect><rect class="cls-11" y="33.15" width="10.32" height="10.32"></rect><rect class="cls-3" x="18.68" y="76.03" width="11.29" height="11.29"></rect><rect class="cls-4" x="15.94" y="8.03" width="11.88" height="11.88"></rect><polygon class="cls-2" points="32.81 15.76 47.14 15.76 47.14 30.09 43.16 30.09 32.81 30.09 32.81 15.76"></polygon><rect class="cls-3" x="2.07" y="54.05" width="8.11" height="8.11"></rect><path class="cls-15" d="M452.3,10.11V56h8V41.32L473,56h9.64v-.59l-15-16.53,13.18-14.76v-.46h-9.57l-10.89,13V10.11Zm-9.92,36.46a9.69,9.69,0,0,1-7.08,2.69c-5,0-9.18-3.28-9.18-9.44,0-5.64,3.93-9.58,9.31-9.58a9.83,9.83,0,0,1,6.49,2.56l5-5.31A15.37,15.37,0,0,0,435.3,22.7c-9.38,0-17.18,5.64-17.18,17.12s7.8,17.12,17.18,17.12a16.62,16.62,0,0,0,12.46-5.12ZM396.46,30.24c5.38,0,8.79,4.72,8.79,9.58s-3,9.51-8.79,9.51-8.79-4.59-8.79-9.51S390.69,30.24,396.46,30.24ZM396.4,23c-10.3,0-16.72,7.61-16.72,16.86s6.3,16.86,16.79,16.86,16.86-7.54,16.86-16.86S406.69,23,396.4,23ZM365,10.11V56h8V10.11ZM341.15,10H319.38V56h21.78c9.51,0,17.18-3.28,17.18-13.51,0-2.89-2-8.59-7.35-10.23a9.36,9.36,0,0,0,6-8.89C357,14,350.2,10,341.15,10ZM327.9,17.85h13.25c5.51,0,7.21,3.56,7.21,5.67,0,2.64-1.77,5-7.21,5H327.9Zm0,18.23h13.25c3.54,0,8.59,2.16,8.59,6.3,0,4.33-5,5.51-8.59,5.51H327.9Zm-25-26V28c-1.9-3.34-7.21-5.18-10.62-5.18-9.44,0-16.46,5.77-16.46,16.92,0,10.62,7.15,16.92,16.66,16.92,3.93,0,7.93-1.31,10.43-5.18l.52,4.46h7.48V10.11ZM293,30.31a9.23,9.23,0,0,1,9.38,9.08v.36a9.17,9.17,0,0,1-8.8,9.51H293c-5.12,0-9.18-3.87-9.18-9.51C283.82,33.91,287.88,30.31,293,30.31ZM260.2,14.5c0,6.23,9.44,6.23,9.44,0S260.2,8.27,260.2,14.5Zm8.72,9V56h-8V23.49Zm-21.79.07-4.46,10.82L237.75,47.9l-5-13.64-4.46-10.69h-8.72L233.41,56.1h8.66l13.77-32.53ZM205.21,14.5c0,6.23,9.44,6.23,9.44,0S205.21,8.27,205.21,14.5Zm8.72,9V56h-8V23.49ZM201.33,10h-9.71l-13.9,35.79L163.88,10h-9.71l19.08,46.17h9Z"></path><path class="cls-15" d="M322.6,85.17V68.6h3.1V85.17Z"></path><path class="cls-15" d="M334.28,71.44H329V68.6h13.63v2.84H337.4V85.17h-3.12Z"></path><path class="cls-15" d="M361,73.47l2.56,8.78,2.68-8.78h3.19l-4.07,11.74H362l-1.21-3.46-1-3.91-1,3.91-1.21,3.46h-3.36l-4.1-11.74h3.22L356,82.26l2.53-8.78Z"></path><path class="cls-15" d="M375.63,70.21a1.71,1.71,0,1,1-1.71-1.71A1.71,1.71,0,0,1,375.63,70.21Zm-3.15,3.24V85.17h2.89V73.45Z"></path><path class="cls-15" d="M382.64,70.21v3.31h3.22V76h-3.24v5a1.45,1.45,0,0,0,1.22,1.65,1.41,1.41,0,0,0,.29,0,3.26,3.26,0,0,0,1.4-.35l.8,2.46a6.35,6.35,0,0,1-2.39.5c-2.53.09-4.19-1.35-4.19-4.26V76h-2.18V73.52h2.18v-3Z"></path><path class="cls-15" d="M391.5,68.6v6.48a4.32,4.32,0,0,1,3.65-1.75c3.31,0,4.78,2.25,4.78,5.68v6.15H397V79c0-2.13-1.11-3-2.65-3a3,3,0,0,0-2.9,3.1.34.34,0,0,1,0,.1v6h-2.89V68.6Z"></path><path class="cls-15" d="M423.15,83.09a8.73,8.73,0,0,1-6.3,2.46c-6.15,0-8.76-4.24-8.78-8.54s2.79-8.73,8.78-8.73a8.57,8.57,0,0,1,6.08,2.53l-2.08,2a5.71,5.71,0,0,0-4-1.56,5.43,5.43,0,0,0-5.7,5.14c0,.21,0,.41,0,.61a5.32,5.32,0,0,0,5,5.62,5.63,5.63,0,0,0,.71,0A6.1,6.1,0,0,0,421,80.93Z"></path><path class="cls-15" d="M427.91,68.62V85.17H425V68.62Z"></path><path class="cls-15" d="M440.29,73.5h2.77V85.17h-2.72l-.14-1.71a4.42,4.42,0,0,1-3.79,2.06c-3.46,0-6-2.11-6-6.2s2.67-6.13,6.08-6.11a4.29,4.29,0,0,1,3.72,1.89Zm-7,5.82a3.34,3.34,0,0,0,3.12,3.55h.34c4.54,0,4.54-7.08,0-7.08A3.31,3.31,0,0,0,433.28,79a2.29,2.29,0,0,0,0,.37Z"></path><path class="cls-15" d="M448.77,73.5l.21,1.35a3.44,3.44,0,0,1,3.29-1.66,4.43,4.43,0,0,1,3,1.11L454,76.81a2.89,2.89,0,0,0-2.08-.76A2.69,2.69,0,0,0,449,78.49a2.17,2.17,0,0,0,0,.51v6.15h-2.89V73.5Z"></path><path class="cls-15" d="M460.11,70.21a1.71,1.71,0,1,1-1.71-1.71A1.71,1.71,0,0,1,460.11,70.21ZM457,73.45V85.17h2.89V73.45Z"></path><path class="cls-15" d="M467.11,70.21v3.31h3.22V76h-3.24v5a1.45,1.45,0,0,0,1.22,1.65,1.41,1.41,0,0,0,.29,0,3.26,3.26,0,0,0,1.4-.35l.8,2.46a6.35,6.35,0,0,1-2.39.5c-2.53.09-4.19-1.35-4.19-4.26V76H462V73.52h2.18v-3Z"></path><path class="cls-15" d="M485.1,73.5,478,90h-3.17L477,85l-4.68-11.5h3.36l1.77,5,1.11,3.29,1.21-3.22,2.13-5.11Z"></path></g></g></svg> 