<svg xmlns="http://www.w3.org/2000/svg" viewBox="0 0 139 99" width="139" height="99">
	<style>
		tspan { white-space:pre }
		.shp0 { fill: #8ccb7d } 
		.shp1 { fill: #4cbd8d } 
		.shp2 { fill: #008faa } 
		.shp3 { fill: #00abab } 
		.shp4 { fill: #0278ba } 
		.shp5 { fill: #00569d } 
		.shp6 { fill: #00407e } 
		.shp7 { fill: #4cbd8f } 
		.shp8 { fill: #ffffff } 
	</style>
	<g id="Layer">
		<g id="Layer">
			<g id="Layer_2_1_">
				<g id="Layer_1-2">
					<path id="Layer" class="shp0" d="M40.3 5.4L53.3 5.4L53.3 18.4L49.7 18.4L40.3 18.4L40.3 5.4Z" />
					<path id="Layer" class="shp1" d="M55.8 5L71.2 5L71.2 20.4L69.2 20.4L55.8 20.4L55.8 5Z" />
					<path id="Layer" class="shp2" d="M72.4 5.3L87.8 5.3L87.8 20.7L72.4 20.7L72.4 5.3Z" />
					<path id="Layer" class="shp3" d="M88.6 5.6L104 5.6L104 21L88.6 21L88.6 5.6Z" />
					<path id="Layer" class="shp2" d="M104.5 6.2L119.9 6.2L119.9 21.6L106.4 21.6L104.5 21.6L104.5 6.2Z" />
					<path id="Layer" class="shp4" d="M119.9 6.2L135.2 6.2L135.2 21.6L124.1 21.6L119.9 21.6L119.9 6.2Z" />
					<path id="Layer" class="shp0" d="M60.8 32.9L56.3 32.9L56.3 25L60.6 32.6L60.8 32.9Z" />
					<path id="Layer" class="shp0" d="M70.5 21.3L72.4 21.3L72.4 24.6L70.5 21.3Z" />
					<path id="Layer" class="shp1" d="M73.1 21.4L88.4 21.4L88.4 36.7L79.9 36.7L79.8 36.4L73.1 24.7L73.1 21.4Z" />
					<path id="Layer" class="shp2" d="M89.2 21.6L104.5 21.6L104.5 24.9L97.8 36.7L97.7 36.9L89.2 36.9L89.2 21.6Z" />
					<path id="Layer" fill-rule="evenodd" class="shp4" d="M119.9 29.1L119.9 37L115.4 37L115.6 36.7L119.9 29.1ZM104.5 21.6L106.4 21.6L104.5 25L104.5 21.6Z" />
					<path id="Layer" class="shp5" d="M124.1 21.6L135.2 21.6L135.2 36.9L119.9 36.9L119.9 29.1L124.1 21.6Z" />
					<path id="Layer" class="shp0" d="M41.7 37.2L54.6 37.2L54.6 50.8L41.7 50.8L41.7 37.2Z" />
					<path id="Layer" class="shp3" d="M56.8 34.2L61.3 34.2L70 49.5L56.8 49.5L56.8 34.2Z" />
					<path id="Layer" class="shp3" d="M80.2 37.1L88.8 37.1L88.8 52L80.2 37.1Z" />
					<path id="Layer" class="shp2" d="M89.2 36.9L97.7 36.9L89.2 51.9L89.2 51.9L89.2 36.9Z" />
					<path id="Layer" class="shp2" d="M115.4 36.9L119.9 36.9L119.9 52.3L106.7 52.3L115.4 36.9Z" />
					<path id="Layer" class="shp6" d="M119.9 36.9L135.3 36.9L135.3 52.3L119.9 52.3L119.9 36.9Z" />
					<path id="Layer" class="shp1" d="M41.3 52.8L55.1 52.8L55.1 66.6L41.3 66.6L41.3 52.8Z" />
					<path id="Layer" class="shp7" d="M57.6 50.8L70.8 50.8L73 54.5L73 66.1L57.6 66.1L57.6 50.8Z" />
					<path id="Layer" class="shp2" d="M80.4 66.6L73.8 66.6L73.8 55L80.3 66.4L80.4 66.6Z" />
					<path id="Layer" class="shp2" d="M104.5 56L104.5 67.7L97.9 67.7L98 67.5L104.5 56Z" />
					<path id="Layer" class="shp5" d="M106.7 52.3L119.9 52.3L119.9 67.7L104.5 67.7L104.5 56L106.7 52.3Z" />
					<path id="Layer" class="shp5" d="M119.9 52.3L135.3 52.3L135.3 67.7L119.9 67.7L119.9 52.3Z" />
					<path id="Layer" class="shp2" d="M42.8 69.2L55.3 69.2L55.3 81.8L42.8 81.8L42.8 69.2Z" />
					<path id="Layer" class="shp3" d="M57.8 67.5L72.4 67.5L72.4 82.1L57.8 82.1L57.8 67.5Z" />
					<path id="Layer" class="shp2" d="M74.1 67.2L80.7 67.2L89.4 82.6L89.4 82.6L74.1 82.6L74.1 67.2Z" />
					<path id="Layer" fill-rule="evenodd" class="shp4" d="M97.9 67.6L104.5 67.6L104.5 83L89.2 83L97.9 67.6Z" />
					<path id="Layer" class="shp4" d="M104.5 67.7L119.9 67.7L119.9 83.1L104.5 83.1L104.5 67.7Z" />
					<path id="Layer" class="shp6" d="M119.9 67.7L135.3 67.7L135.3 83.1L119.9 83.1L119.9 67.7Z" />
					<path id="Layer" class="shp0" d="M41.9 84.5L54.5 84.5L54.5 97.1L41.9 97.1L41.9 84.5Z" />
					<path id="Layer" class="shp3" d="M57.1 84.2L71.1 84.2L71.1 98.2L57.1 98.2L57.1 84.2Z" />
					<path id="Layer" class="shp2" d="M72.9 83.2L88.3 83.2L88.3 98.6L72.9 98.6L72.9 83.2Z" />
					<path id="Layer" class="shp4" d="M88.9 83.2L88.9 83.2L104.3 83.2L104.3 98.6L88.9 98.6L88.9 83.2Z" />
					<path id="Layer" class="shp5" d="M104.5 83L119.9 83L119.9 98.4L104.5 98.4L104.5 83Z" />
					<path id="Layer" class="shp6" d="M119.9 83L135.3 83L135.3 98.4L119.9 98.4L119.9 83Z" />
					<path id="Layer" class="shp2" d="M23.7 36.2L36.5 36.2L36.5 49L32.9 49L23.7 49L23.7 36.2Z" />
					<path id="Layer" class="shp3" d="M23.3 58.1L36.6 58.1L36.6 71.4L23.3 71.4L23.3 58.1Z" />
					<path id="Layer" class="shp1" d="M7 38.2L17.3 38.2L17.3 48.5L7 48.5L7 38.2Z" />
					<path id="Layer" class="shp2" d="M25.7 81L37 81L37 92.3L25.7 92.3L25.7 81Z" />
					<path id="Layer" class="shp3" d="M22.9 13L34.8 13L34.8 24.9L22.9 24.9L22.9 13Z" />
					<path id="Layer" class="shp1" d="M39.8 20.8L54.1 20.8L54.1 35.1L50.2 35.1L39.8 35.1L39.8 20.8Z" />
					<path id="Layer" class="shp2" d="M9.1 59L17.2 59L17.2 67.1L9.1 67.1L9.1 59Z" />
					<path id="Layer" fill-rule="evenodd" class="shp8" d="M467.3 15.1L467.3 41.6L478.2 28.6L487.8 28.6L487.8 29.1L474.6 43.9L489.6 60.4L489.6 61L480 61L467.3 46.3L467.3 61L459.3 61L459.3 15.1L467.3 15.1ZM454.8 56.9C451.5 60.3 447 62.1 442.3 62C432.9 62 425.1 56.4 425.1 44.9C425.1 33.4 432.9 27.8 442.3 27.8C446.7 27.7 450.9 29.4 453.9 32.6L448.9 37.9C447.1 36.2 444.8 35.3 442.4 35.3C437 35.3 433.1 39.3 433.1 44.9C433.1 51 437.3 54.3 442.3 54.3C444.9 54.4 447.5 53.4 449.4 51.6L454.8 56.9ZM420.4 44.9C420.4 54.3 414 61.8 403.5 61.8C393 61.8 386.7 54.2 386.7 44.9C386.7 35.6 393.1 28 403.4 28C413.7 28 420.4 35.5 420.4 44.9ZM394.7 44.8C394.7 49.7 397.7 54.3 403.5 54.3C409.3 54.3 412.3 49.7 412.3 44.8C412.3 39.9 408.9 35.2 403.5 35.2C397.7 35.2 394.7 39.9 394.7 44.8ZM380 15.1L380 61L372 61L372 15.1L380 15.1ZM363.9 28.4C364 32.3 361.6 35.9 357.9 37.3C363.3 38.9 365.3 44.6 365.3 47.5C365.3 57.7 357.6 61 348.1 61L326.3 61L326.3 15L348.1 15C357.2 15 364 19 363.9 28.4ZM334.9 33.6L348.1 33.6C353.5 33.6 355.3 31.2 355.3 28.6C355.3 26.5 353.6 22.9 348.1 22.9L334.9 22.9L334.9 33.6ZM334.9 52.9L348.1 52.9C351.7 52.9 356.7 51.7 356.7 47.4C356.7 43.3 351.6 41.1 348.1 41.1L334.9 41.1L334.9 52.9ZM317.9 15.1L317.9 60.9L310.4 60.9L309.9 56.4C307.4 60.3 303.4 61.6 299.5 61.6C289.9 61.6 282.8 55.3 282.8 44.7C282.8 33.6 289.9 27.8 299.3 27.8C302.7 27.8 308 29.7 309.9 33L309.9 15.1L317.9 15.1ZM290.8 44.8C290.8 50.4 294.9 54.3 300 54.3C300.2 54.3 300.4 54.3 300.6 54.3C305.7 54.1 309.6 49.9 309.4 44.8C309.4 44.6 309.4 44.5 309.4 44.4C309.3 39.3 305.1 35.2 300 35.3C294.9 35.3 290.8 38.9 290.8 44.8ZM276.6 19.5C276.6 25.7 267.2 25.7 267.2 19.5C267.2 13.3 276.6 13.3 276.6 19.5ZM275.9 28.5L275.9 61L267.9 61L267.9 28.5L275.9 28.5ZM262.8 28.6L249 61.1L240.3 61.1L226.5 28.6L235.2 28.6L239.7 39.3L244.7 52.9L249.6 39.4L254.1 28.6L262.8 28.6ZM221.6 19.5C221.6 25.7 212.2 25.7 212.2 19.5C212.2 13.3 221.6 13.3 221.6 19.5ZM220.9 28.5L220.9 61L212.9 61L212.9 28.5L220.9 28.5ZM189.3 61.2L180.3 61.2L161.2 15L170.9 15L184.7 50.8L198.6 15L208.3 15L189.3 61.2Z" />
					<path id="Layer" class="shp8" d="M329.6 90.2L329.6 73.6L332.7 73.6L332.7 90.2L329.6 90.2L329.6 90.2Z" />
					<path id="Layer" class="shp8" d="M341.3 76.4L336 76.4L336 73.6L349.6 73.6L349.6 76.4L344.4 76.4L344.4 90.1L341.3 90.1L341.3 76.4Z" />
					<path id="Layer" class="shp8" d="M368 78.5L370.6 87.3L373.3 78.5L376.5 78.5L372.4 90.2L369 90.2L367.8 86.7L366.8 82.8L365.8 86.7L364.6 90.2L361.2 90.2L357.1 78.5L360.3 78.5L363 87.3L365.5 78.5L368 78.5Z" />
					<path id="Layer" fill-rule="evenodd" class="shp8" d="M380.9 73.5C380 73.5 379.2 74.3 379.2 75.2C379.2 76.1 380 76.9 380.9 76.9C381.8 76.9 382.6 76.1 382.6 75.2C382.6 74.3 381.9 73.5 380.9 73.5ZM379.5 78.4L379.5 90.1L382.4 90.1L382.4 78.4L379.5 78.4Z" />
					<path id="Layer" class="shp8" d="M389.6 75.2L389.6 78.5L392.8 78.5L392.8 81L389.6 81L389.6 86C389.5 86.8 390 87.5 390.8 87.6C390.9 87.6 391 87.6 391.1 87.6C391.6 87.6 392.1 87.5 392.5 87.3L393.3 89.8C392.5 90.1 391.7 90.3 390.9 90.3C388.4 90.4 386.7 89 386.7 86L386.7 81L384.5 81L384.5 78.5L386.7 78.5L386.7 75.5L389.6 75.2Z" />
					<path id="Layer" class="shp8" d="M398.5 73.6L398.5 80.1C399.4 78.9 400.7 78.3 402.1 78.3C405.4 78.3 406.9 80.5 406.9 84L406.9 90.2L404 90.2L404 84C404 81.9 402.9 81 401.4 81C399.7 81.1 398.4 82.4 398.5 84.1L398.5 84.2L398.5 90.2L395.6 90.2L395.6 73.6L398.5 73.6Z" />
					<path id="Layer" class="shp8" d="M430.1 88.1C428.4 89.7 426.1 90.6 423.8 90.6C417.7 90.6 415 86.4 415 82.1C415 77.8 417.8 73.4 423.8 73.4C426.1 73.4 428.3 74.3 429.9 75.9L427.8 77.9C426.7 76.9 425.3 76.3 423.8 76.3C420.8 76.1 418.3 78.4 418.1 81.4C418.1 81.6 418.1 81.8 418.1 82C417.9 84.9 420.2 87.4 423.1 87.6C423.3 87.6 423.6 87.6 423.8 87.6C425.3 87.6 426.8 87 427.9 85.9L430.1 88.1Z" />
					<path id="Layer" class="shp8" d="M434.9 73.6L434.9 90.1L432 90.1L432 73.6L434.9 73.6Z" />
					<path id="Layer" fill-rule="evenodd" class="shp8" d="M447.3 78.5L450.1 78.5L450.1 90.2L447.4 90.2L447.3 88.5C446.5 89.8 445 90.6 443.5 90.6C440 90.6 437.5 88.5 437.5 84.4C437.5 80.3 440.2 78.3 443.6 78.3C445.1 78.2 446.5 79 447.3 80.2L447.3 78.5ZM443.4 87.8C443.5 87.8 443.6 87.8 443.7 87.8C448.2 87.8 448.2 80.7 443.7 80.7C441.9 80.6 440.3 82 440.2 83.9C440.3 84.1 440.3 84.2 440.3 84.3C440.2 86.1 441.6 87.7 443.4 87.8Z" />
					<path id="Layer" class="shp8" d="M455.8 78.5L456 79.8C456.7 78.7 458 78 459.3 78.1C460.4 78.1 461.5 78.5 462.3 79.2L461 81.7C460.4 81.2 459.7 80.9 458.9 80.9C457.4 80.8 456.1 81.9 456 83.3C456 83.5 456 83.6 456 83.8L456 90L453.1 90L453.1 78.5L455.8 78.5Z" />
					<path id="Layer" fill-rule="evenodd" class="shp8" d="M465.4 73.5C464.5 73.5 463.7 74.3 463.7 75.2C463.7 76.1 464.5 76.9 465.4 76.9C466.3 76.9 467.1 76.1 467.1 75.2C467.1 74.3 466.3 73.5 465.4 73.5ZM464 78.4L464 90.1L466.9 90.1L466.9 78.4L464 78.4Z" />
					<path id="Layer" class="shp8" d="M474.1 75.2L474.1 78.5L477.3 78.5L477.3 81L474.1 81L474.1 86C474 86.8 474.5 87.5 475.3 87.6C475.4 87.6 475.5 87.6 475.6 87.6C476.1 87.6 476.6 87.5 477 87.3L477.8 89.8C477 90.1 476.2 90.3 475.4 90.3C472.9 90.4 471.2 89 471.2 86L471.2 81L469 81L469 78.5L471.2 78.5L471.2 75.5L474.1 75.2Z" />
					<path id="Layer" class="shp8" d="M492.1 78.5L485 95L481.8 95L484 90L479.3 78.5L482.7 78.5L484.5 83.5L485.6 86.8L486.8 83.6L488.9 78.5L492.1 78.5Z" />
				</g>
			</g>
		</g>
	</g>
</svg>