<?xml version="1.0" encoding="UTF-8"?> <svg xmlns="http://www.w3.org/2000/svg" viewBox="0 0 128.24 93.6"><defs><style>.cls-1,.cls-8{fill:#8ccb7d;}.cls-1,.cls-12,.cls-2,.cls-5,.cls-6,.cls-7,.cls-9{fill-rule:evenodd;}.cls-11,.cls-2{fill:#4cbd8d;}.cls-3,.cls-5{fill:#008faa;}.cls-4,.cls-9{fill:#00abab;}.cls-14,.cls-6{fill:#0278ba;}.cls-13,.cls-7{fill:#00569d;}.cls-10{fill:#00407e;}.cls-12{fill:#4cbd8f;}</style></defs><title>Asset 1</title><g id="Layer_2" data-name="Layer 2"><g id="Layer_1-2" data-name="Layer 1"><polygon class="cls-1" points="33.33 0.45 46.3 0.45 46.3 13.42 42.7 13.42 33.33 13.42 33.33 0.45"></polygon><polygon class="cls-2" points="48.79 0 64.15 0 64.15 15.36 62.25 15.36 48.79 15.36 48.79 0"></polygon><rect class="cls-3" x="65.38" y="0.26" width="15.36" height="15.36"></rect><rect class="cls-4" x="81.62" y="0.59" width="15.36" height="15.36"></rect><polygon class="cls-5" points="97.52 1.23 112.88 1.23 112.88 16.59 99.43 16.59 97.52 16.59 97.52 1.23"></polygon><polygon class="cls-6" points="112.88 1.23 128.24 1.23 128.24 16.59 117.14 16.59 112.88 16.59 112.88 1.23"></polygon><polygon class="cls-1" points="53.79 27.92 49.31 27.92 49.31 20.05 53.64 27.64 53.79 27.92"></polygon><polygon class="cls-1" points="63.55 16.3 65.45 16.3 65.45 19.65 63.55 16.3"></polygon><polygon class="cls-2" points="66.1 16.35 81.45 16.35 81.45 31.7 72.94 31.7 72.78 31.43 66.1 19.69 66.1 16.35"></polygon><polygon class="cls-5" points="82.17 16.59 97.52 16.59 97.52 19.93 90.84 31.66 90.69 31.94 82.17 31.94 82.17 16.59"></polygon><path class="cls-6" d="M112.88,24.07v7.87H108.4l.16-.28ZM97.52,16.58h1.91l-1.91,3.35Z"></path><polygon class="cls-7" points="117.14 16.59 128.24 16.59 128.24 31.94 112.88 31.94 112.88 24.07 117.14 16.59"></polygon><rect class="cls-8" x="34.73" y="32.21" width="12.9" height="13.6"></rect><polygon class="cls-9" points="49.79 29.16 54.27 29.16 63.02 44.52 49.79 44.52 49.79 29.16"></polygon><polygon class="cls-9" points="73.25 32.08 81.77 32.08 81.77 47.04 73.25 32.08"></polygon><polygon class="cls-5" points="82.17 31.94 90.69 31.94 82.17 46.9 82.17 46.9 82.17 31.94"></polygon><polygon class="cls-5" points="108.4 31.94 112.88 31.94 112.88 47.3 99.66 47.3 108.4 31.94"></polygon><rect class="cls-10" x="112.88" y="31.94" width="15.36" height="15.36"></rect><rect class="cls-11" x="34.35" y="47.79" width="13.76" height="13.76"></rect><polygon class="cls-12" points="50.62 45.77 63.85 45.77 65.98 49.51 65.98 61.13 50.62 61.13 50.62 45.77"></polygon><polygon class="cls-5" points="73.39 61.59 66.78 61.59 66.78 49.98 73.28 61.4 73.39 61.59"></polygon><polygon class="cls-5" points="97.52 51.04 97.52 62.65 90.91 62.65 91.02 62.45 97.52 51.04"></polygon><polygon class="cls-7" points="99.66 47.3 112.88 47.3 112.88 62.65 97.52 62.65 97.52 51.04 99.66 47.3"></polygon><rect class="cls-13" x="112.88" y="47.3" width="15.36" height="15.36"></rect><rect class="cls-3" x="35.81" y="64.17" width="12.55" height="12.56"></rect><rect class="cls-4" x="50.85" y="62.46" width="14.55" height="14.55"></rect><polygon class="cls-5" points="67.08 62.2 73.7 62.2 82.44 77.56 82.44 77.56 67.08 77.56 67.08 62.2"></polygon><path class="cls-6" d="M82.17,78Zm8.74-15.36h6.61V78H82.17Z"></path><rect class="cls-14" x="97.52" y="62.65" width="15.36" height="15.36"></rect><rect class="cls-10" x="112.88" y="62.65" width="15.36" height="15.36"></rect><rect class="cls-8" x="34.92" y="79.46" width="12.63" height="12.63"></rect><rect class="cls-4" x="50.14" y="79.16" width="13.97" height="13.97"></rect><rect class="cls-3" x="65.92" y="78.17" width="15.36" height="15.36"></rect><polygon class="cls-6" points="81.93 78.25 81.93 78.25 97.29 78.25 97.29 93.6 81.93 93.6 81.93 78.25"></polygon><rect class="cls-13" x="97.52" y="78.01" width="15.36" height="15.36"></rect><rect class="cls-10" x="112.88" y="78.01" width="15.36" height="15.36"></rect><polygon class="cls-5" points="16.67 31.24 29.49 31.24 29.49 44.05 25.93 44.05 16.67 44.05 16.67 31.24"></polygon><rect class="cls-4" x="16.26" y="53.13" width="13.34" height="13.34"></rect><rect class="cls-11" y="33.15" width="10.32" height="10.32"></rect><rect class="cls-3" x="18.68" y="76.03" width="11.29" height="11.29"></rect><rect class="cls-4" x="15.94" y="8.03" width="11.88" height="11.88"></rect><polygon class="cls-2" points="32.81 15.76 47.14 15.76 47.14 30.09 43.16 30.09 32.81 30.09 32.81 15.76"></polygon><rect class="cls-3" x="2.07" y="54.05" width="8.11" height="8.11"></rect></g></g></svg> 