<svg xmlns="http://www.w3.org/2000/svg" id="Layer_1" data-name="Layer 1" viewBox="0 0 485.1 93.6"><defs><style>.cls-1,.cls-8{fill:#8ccb7d}.cls-1,.cls-2,.cls-5,.cls-6,.cls-7,.cls-9{fill-rule:evenodd}.cls-11,.cls-2{fill:#4cbd8d}.cls-3,.cls-5{fill:#008faa}.cls-4,.cls-9{fill:#00abab}.cls-6{fill:#0278ba}.cls-13,.cls-7{fill:#00569d}.cls-10{fill:#00407e}.cls-15{fill:#fff}</style></defs><g id="Layer_2" data-name="Layer 2"><g id="Layer_1-2" data-name="Layer 1-2"><path class="cls-1" d="M33.33.45H46.3v12.97H33.33V.45z"/><path class="cls-2" d="M48.79 0h15.36v15.36H48.79V0z"/><path class="cls-3" d="M65.38.26h15.36v15.36H65.38z"/><path class="cls-4" d="M81.62.59h15.36v15.36H81.62z"/><path class="cls-5" d="M97.52 1.23h15.36v15.36H97.52V1.23z"/><path class="cls-6" d="M112.88 1.23h15.36v15.36h-15.36V1.23z"/><path class="cls-1" d="M53.79 27.92h-4.48v-7.87l4.33 7.59.15.28zM63.55 16.3h1.9v3.35l-1.9-3.35z"/><path class="cls-2" d="M66.1 16.35h15.35V31.7h-8.51l-.16-.27-6.68-11.74v-3.34z"/><path class="cls-5" d="M82.17 16.59h15.35v3.34l-6.68 11.73-.15.28h-8.52V16.59z"/><path class="cls-6" d="M112.88 24.07v7.87h-4.48l.16-.28zm-15.36-7.49h1.91l-1.91 3.35z"/><path class="cls-7" d="M117.14 16.59h11.1v15.35h-15.36v-7.87l4.26-7.48z"/><path class="cls-8" d="M34.73 32.21h12.9v13.6h-12.9z"/><path class="cls-9" d="M49.79 29.16h4.48l8.75 15.36H49.79V29.16zM73.25 32.08h8.52v14.96l-8.52-14.96z"/><path class="cls-5" d="M82.17 31.94h8.52L82.17 46.9V31.94zM108.4 31.94h4.48V47.3H99.66l8.74-15.36z"/><path class="cls-10" d="M112.88 31.94h15.36V47.3h-15.36z"/><path class="cls-11" d="M34.35 47.79h13.76v13.76H34.35z"/><path fill="#4cbd8f" fill-rule="evenodd" d="M50.62 45.77h13.23l2.13 3.74v11.62H50.62V45.77z"/><path class="cls-5" d="M73.39 61.59h-6.61V49.98l6.5 11.42.11.19zM97.52 51.04v11.61h-6.61l.11-.2 6.5-11.41z"/><path class="cls-7" d="M99.66 47.3h13.22v15.35H97.52V51.04l2.14-3.74z"/><path class="cls-13" d="M112.88 47.3h15.36v15.36h-15.36z"/><path class="cls-3" d="M35.81 64.17h12.55v12.56H35.81z"/><path class="cls-4" d="M50.85 62.46H65.4v14.55H50.85z"/><path class="cls-5" d="M67.08 62.2h6.62l8.74 15.36H67.08V62.2z"/><path class="cls-6" d="M90.91 62.64h6.61V78H82.17z"/><path fill="#0278ba" d="M97.52 62.65h15.36v15.36H97.52z"/><path class="cls-10" d="M112.88 62.65h15.36v15.36h-15.36z"/><path class="cls-8" d="M34.92 79.46h12.63v12.63H34.92z"/><path class="cls-4" d="M50.14 79.16h13.97v13.97H50.14z"/><path class="cls-3" d="M65.92 78.17h15.36v15.36H65.92z"/><path class="cls-6" d="M81.93 78.25h15.36V93.6H81.93V78.25z"/><path class="cls-13" d="M97.52 78.01h15.36v15.36H97.52z"/><path class="cls-10" d="M112.88 78.01h15.36v15.36h-15.36z"/><path class="cls-5" d="M16.67 31.24h12.82v12.81H16.67V31.24z"/><path class="cls-4" d="M16.26 53.13H29.6v13.34H16.26z"/><path class="cls-11" d="M0 33.15h10.32v10.32H0z"/><path class="cls-3" d="M18.68 76.03h11.29v11.29H18.68z"/><path class="cls-4" d="M15.94 8.03h11.88v11.88H15.94z"/><path class="cls-2" d="M32.81 15.76h14.33v14.33H32.81V15.76z"/><path class="cls-3" d="M2.07 54.05h8.11v8.11H2.07z"/><path class="cls-15" d="M452.3 10.11V56h8V41.32L473 56h9.64v-.59l-15-16.53 13.18-14.76v-.46h-9.57l-10.89 13V10.11zm-9.92 36.46a9.69 9.69 0 01-7.08 2.69c-5 0-9.18-3.28-9.18-9.44 0-5.64 3.93-9.58 9.31-9.58a9.83 9.83 0 016.49 2.56l5-5.31a15.37 15.37 0 00-11.62-4.79c-9.38 0-17.18 5.64-17.18 17.12s7.8 17.12 17.18 17.12a16.62 16.62 0 0012.46-5.12zm-45.92-16.33c5.38 0 8.79 4.72 8.79 9.58s-3 9.51-8.79 9.51-8.79-4.59-8.79-9.51 3.02-9.58 8.79-9.58zM396.4 23c-10.3 0-16.72 7.61-16.72 16.86s6.3 16.86 16.79 16.86 16.86-7.54 16.86-16.86S406.69 23 396.4 23zM365 10.11V56h8V10.11zM341.15 10h-21.77v46h21.78c9.51 0 17.18-3.28 17.18-13.51 0-2.89-2-8.59-7.35-10.23a9.36 9.36 0 006-8.89C357 14 350.2 10 341.15 10zm-13.25 7.85h13.25c5.51 0 7.21 3.56 7.21 5.67 0 2.64-1.77 5-7.21 5H327.9zm0 18.23h13.25c3.54 0 8.59 2.16 8.59 6.3 0 4.33-5 5.51-8.59 5.51H327.9zm-25-26V28c-1.9-3.34-7.21-5.18-10.62-5.18-9.44 0-16.46 5.77-16.46 16.92 0 10.62 7.15 16.92 16.66 16.92 3.93 0 7.93-1.31 10.43-5.18l.52 4.46h7.48V10.11zM293 30.31a9.23 9.23 0 019.38 9.08v.36a9.17 9.17 0 01-8.8 9.51H293c-5.12 0-9.18-3.87-9.18-9.51 0-5.84 4.06-9.44 9.18-9.44zM260.2 14.5c0 6.23 9.44 6.23 9.44 0s-9.44-6.23-9.44 0zm8.72 9V56h-8V23.49zm-21.79.07l-4.46 10.82-4.92 13.51-5-13.64-4.46-10.69h-8.72l13.84 32.53h8.66l13.77-32.53zm-41.92-9.07c0 6.23 9.44 6.23 9.44 0s-9.44-6.23-9.44 0zm8.72 9V56h-8V23.49zM201.33 10h-9.71l-13.9 35.79L163.88 10h-9.71l19.08 46.17h9zM322.6 85.17V68.6h3.1v16.57zM334.28 71.44H329V68.6h13.63v2.84h-5.23v13.73h-3.12zM361 73.47l2.56 8.78 2.68-8.78h3.19l-4.07 11.74H362l-1.21-3.46-1-3.91-1 3.91-1.21 3.46h-3.36l-4.1-11.74h3.22l2.66 8.79 2.53-8.78zM375.63 70.21a1.71 1.71 0 11-1.71-1.71 1.71 1.71 0 011.71 1.71zm-3.15 3.24v11.72h2.89V73.45zM382.64 70.21v3.31h3.22V76h-3.24v5a1.45 1.45 0 001.22 1.65 1.41 1.41 0 00.29 0 3.26 3.26 0 001.4-.35l.8 2.46a6.35 6.35 0 01-2.39.5c-2.53.09-4.19-1.35-4.19-4.26v-5h-2.18v-2.48h2.18v-3zM391.5 68.6v6.48a4.32 4.32 0 013.65-1.75c3.31 0 4.78 2.25 4.78 5.68v6.15H397V79c0-2.13-1.11-3-2.65-3a3 3 0 00-2.9 3.1.34.34 0 010 .1v6h-2.89V68.6zM423.15 83.09a8.73 8.73 0 01-6.3 2.46c-6.15 0-8.76-4.24-8.78-8.54s2.79-8.73 8.78-8.73a8.57 8.57 0 016.08 2.53l-2.08 2a5.71 5.71 0 00-4-1.56 5.43 5.43 0 00-5.7 5.14V77a5.32 5.32 0 005 5.62 5.63 5.63 0 00.71 0 6.1 6.1 0 004.14-1.69zM427.91 68.62v16.55H425V68.62zM440.29 73.5h2.77v11.67h-2.72l-.14-1.71a4.42 4.42 0 01-3.79 2.06c-3.46 0-6-2.11-6-6.2s2.67-6.13 6.08-6.11a4.29 4.29 0 013.72 1.89zm-7 5.82a3.34 3.34 0 003.12 3.55h.34c4.54 0 4.54-7.08 0-7.08a3.31 3.31 0 00-3.47 3.21 2.29 2.29 0 000 .37zM448.77 73.5l.21 1.35a3.44 3.44 0 013.29-1.66 4.43 4.43 0 013 1.11L454 76.81a2.89 2.89 0 00-2.08-.76 2.69 2.69 0 00-2.92 2.44 2.17 2.17 0 000 .51v6.15h-2.89V73.5zM460.11 70.21a1.71 1.71 0 11-1.71-1.71 1.71 1.71 0 011.71 1.71zM457 73.45v11.72h2.89V73.45zM467.11 70.21v3.31h3.22V76h-3.24v5a1.45 1.45 0 001.22 1.65 1.41 1.41 0 00.29 0 3.26 3.26 0 001.4-.35l.8 2.46a6.35 6.35 0 01-2.39.5c-2.53.09-4.19-1.35-4.19-4.26v-5H462v-2.48h2.18v-3zM485.1 73.5L478 90h-3.17l2.17-5-4.68-11.5h3.36l1.77 5 1.11 3.29 1.21-3.22 2.13-5.11z"/></g></g></svg>