<?xml version="1.0" encoding="UTF-8"?>
<svg xmlns="http://www.w3.org/2000/svg" xmlns:xlink="http://www.w3.org/1999/xlink" width="102.592003pt" height="74.879997pt" viewBox="0 0 102.592003 74.879997" version="1.1">
<g id="surface1">
<path style=" stroke:none;fill-rule:evenodd;fill:rgb(69%,69%,69%);fill-opacity:1;" d="M 26.664062 0.359375 L 37.039062 0.359375 L 37.039062 10.734375 L 26.664062 10.734375 Z M 26.664062 0.359375 "/>
<path style=" stroke:none;fill-rule:evenodd;fill:rgb(59%,59%,59%);fill-opacity:1;" d="M 39.03125 0 L 51.320312 0 L 51.320312 12.289062 L 39.03125 12.289062 Z M 39.03125 0 "/>
<path style=" stroke:none;fill-rule:nonzero;fill:rgb(41%,41%,41%);fill-opacity:1;" d="M 52.304688 0.207031 L 64.59375 0.207031 L 64.59375 12.496094 L 52.304688 12.496094 Z M 52.304688 0.207031 "/>
<path style=" stroke:none;fill-rule:nonzero;fill:rgb(47%,47%,47%);fill-opacity:1;" d="M 65.296875 0.472656 L 77.585938 0.472656 L 77.585938 12.761719 L 65.296875 12.761719 Z M 65.296875 0.472656 "/>
<path style=" stroke:none;fill-rule:evenodd;fill:rgb(41%,41%,41%);fill-opacity:1;" d="M 78.015625 0.984375 L 90.304688 0.984375 L 90.304688 13.273438 L 78.015625 13.273438 Z M 78.015625 0.984375 "/>
<path style=" stroke:none;fill-rule:evenodd;fill:rgb(36%,36%,36%);fill-opacity:1;" d="M 90.304688 0.984375 L 102.59375 0.984375 L 102.59375 13.273438 L 90.304688 13.273438 Z M 90.304688 0.984375 "/>
<path style=" stroke:none;fill-rule:evenodd;fill:rgb(69%,69%,69%);fill-opacity:1;" d="M 43.03125 22.335938 L 39.449219 22.335938 L 39.449219 16.039062 L 42.910156 22.113281 Z M 43.03125 22.335938 "/>
<path style=" stroke:none;fill-rule:evenodd;fill:rgb(69%,69%,69%);fill-opacity:1;" d="M 50.839844 13.039062 L 52.359375 13.039062 L 52.359375 15.71875 Z M 50.839844 13.039062 "/>
<path style=" stroke:none;fill-rule:evenodd;fill:rgb(59%,59%,59%);fill-opacity:1;" d="M 52.878906 13.078125 L 65.160156 13.078125 L 65.160156 25.359375 L 58.351562 25.359375 L 58.222656 25.144531 L 52.878906 15.753906 Z M 52.878906 13.078125 "/>
<path style=" stroke:none;fill-rule:evenodd;fill:rgb(41%,41%,41%);fill-opacity:1;" d="M 65.734375 13.273438 L 78.015625 13.273438 L 78.015625 15.945312 L 72.671875 25.328125 L 72.550781 25.550781 L 65.734375 25.550781 Z M 65.734375 13.273438 "/>
<path style=" stroke:none;fill-rule:evenodd;fill:rgb(36%,36%,36%);fill-opacity:1;" d="M 90.304688 19.257812 L 90.304688 25.550781 L 86.71875 25.550781 L 86.847656 25.328125 Z M 78.015625 13.265625 L 79.542969 13.265625 L 78.015625 15.945312 Z M 78.015625 13.265625 "/>
<path style=" stroke:none;fill-rule:evenodd;fill:rgb(27%,27%,27%);fill-opacity:1;" d="M 93.710938 13.273438 L 102.59375 13.273438 L 102.59375 25.550781 L 90.304688 25.550781 L 90.304688 19.257812 Z M 93.710938 13.273438 "/>
<path style=" stroke:none;fill-rule:nonzero;fill:rgb(69%,69%,69%);fill-opacity:1;" d="M 27.785156 25.769531 L 38.105469 25.769531 L 38.105469 36.648438 L 27.785156 36.648438 Z M 27.785156 25.769531 "/>
<path style=" stroke:none;fill-rule:evenodd;fill:rgb(47%,47%,47%);fill-opacity:1;" d="M 39.832031 23.328125 L 43.414062 23.328125 L 50.414062 35.617188 L 39.832031 35.617188 Z M 39.832031 23.328125 "/>
<path style=" stroke:none;fill-rule:evenodd;fill:rgb(47%,47%,47%);fill-opacity:1;" d="M 58.601562 25.664062 L 65.414062 25.664062 L 65.414062 37.632812 Z M 58.601562 25.664062 "/>
<path style=" stroke:none;fill-rule:evenodd;fill:rgb(41%,41%,41%);fill-opacity:1;" d="M 65.734375 25.550781 L 72.550781 25.550781 L 65.734375 37.519531 Z M 65.734375 25.550781 "/>
<path style=" stroke:none;fill-rule:evenodd;fill:rgb(41%,41%,41%);fill-opacity:1;" d="M 86.71875 25.550781 L 90.304688 25.550781 L 90.304688 37.839844 L 79.726562 37.839844 Z M 86.71875 25.550781 "/>
<path style=" stroke:none;fill-rule:nonzero;fill:rgb(20%,20%,20%);fill-opacity:1;" d="M 90.304688 25.550781 L 102.59375 25.550781 L 102.59375 37.839844 L 90.304688 37.839844 Z M 90.304688 25.550781 "/>
<path style=" stroke:none;fill-rule:nonzero;fill:rgb(59%,59%,59%);fill-opacity:1;" d="M 27.480469 38.230469 L 38.488281 38.230469 L 38.488281 49.238281 L 27.480469 49.238281 Z M 27.480469 38.230469 "/>
<path style=" stroke:none;fill-rule:evenodd;fill:rgb(59%,59%,59%);fill-opacity:1;" d="M 40.496094 36.617188 L 51.078125 36.617188 L 52.785156 39.609375 L 52.785156 48.902344 L 40.496094 48.902344 Z M 40.496094 36.617188 "/>
<path style=" stroke:none;fill-rule:evenodd;fill:rgb(41%,41%,41%);fill-opacity:1;" d="M 58.710938 49.273438 L 53.425781 49.273438 L 53.425781 39.984375 L 58.625 49.121094 Z M 58.710938 49.273438 "/>
<path style=" stroke:none;fill-rule:evenodd;fill:rgb(41%,41%,41%);fill-opacity:1;" d="M 78.015625 40.832031 L 78.015625 50.121094 L 72.726562 50.121094 L 72.816406 49.960938 Z M 78.015625 40.832031 "/>
<path style=" stroke:none;fill-rule:evenodd;fill:rgb(27%,27%,27%);fill-opacity:1;" d="M 79.726562 37.839844 L 90.304688 37.839844 L 90.304688 50.121094 L 78.015625 50.121094 L 78.015625 40.832031 Z M 79.726562 37.839844 "/>
<path style=" stroke:none;fill-rule:nonzero;fill:rgb(27%,27%,27%);fill-opacity:1;" d="M 90.304688 37.839844 L 102.59375 37.839844 L 102.59375 50.128906 L 90.304688 50.128906 Z M 90.304688 37.839844 "/>
<path style=" stroke:none;fill-rule:nonzero;fill:rgb(41%,41%,41%);fill-opacity:1;" d="M 28.648438 51.335938 L 38.6875 51.335938 L 38.6875 61.382812 L 28.648438 61.382812 Z M 28.648438 51.335938 "/>
<path style=" stroke:none;fill-rule:nonzero;fill:rgb(47%,47%,47%);fill-opacity:1;" d="M 40.679688 49.96875 L 52.320312 49.96875 L 52.320312 61.609375 L 40.679688 61.609375 Z M 40.679688 49.96875 "/>
<path style=" stroke:none;fill-rule:evenodd;fill:rgb(41%,41%,41%);fill-opacity:1;" d="M 53.664062 49.761719 L 58.960938 49.761719 L 65.953125 62.046875 L 53.664062 62.046875 Z M 53.664062 49.761719 "/>
<path style=" stroke:none;fill-rule:evenodd;fill:rgb(36%,36%,36%);fill-opacity:1;" d="M 72.726562 50.113281 L 78.015625 50.113281 L 78.015625 62.398438 L 65.734375 62.398438 Z M 72.726562 50.113281 "/>
<path style=" stroke:none;fill-rule:nonzero;fill:rgb(36%,36%,36%);fill-opacity:1;" d="M 78.015625 50.121094 L 90.304688 50.121094 L 90.304688 62.40625 L 78.015625 62.40625 Z M 78.015625 50.121094 "/>
<path style=" stroke:none;fill-rule:nonzero;fill:rgb(20%,20%,20%);fill-opacity:1;" d="M 90.304688 50.121094 L 102.59375 50.121094 L 102.59375 62.40625 L 90.304688 62.40625 Z M 90.304688 50.121094 "/>
<path style=" stroke:none;fill-rule:nonzero;fill:rgb(69%,69%,69%);fill-opacity:1;" d="M 27.9375 63.566406 L 38.039062 63.566406 L 38.039062 73.671875 L 27.9375 73.671875 Z M 27.9375 63.566406 "/>
<path style=" stroke:none;fill-rule:nonzero;fill:rgb(47%,47%,47%);fill-opacity:1;" d="M 40.113281 63.328125 L 51.289062 63.328125 L 51.289062 74.503906 L 40.113281 74.503906 Z M 40.113281 63.328125 "/>
<path style=" stroke:none;fill-rule:nonzero;fill:rgb(41%,41%,41%);fill-opacity:1;" d="M 52.734375 62.535156 L 65.023438 62.535156 L 65.023438 74.824219 L 52.734375 74.824219 Z M 52.734375 62.535156 "/>
<path style=" stroke:none;fill-rule:evenodd;fill:rgb(36%,36%,36%);fill-opacity:1;" d="M 65.542969 62.601562 L 77.832031 62.601562 L 77.832031 74.878906 L 65.542969 74.878906 Z M 65.542969 62.601562 "/>
<path style=" stroke:none;fill-rule:nonzero;fill:rgb(27%,27%,27%);fill-opacity:1;" d="M 78.015625 62.40625 L 90.304688 62.40625 L 90.304688 74.695312 L 78.015625 74.695312 Z M 78.015625 62.40625 "/>
<path style=" stroke:none;fill-rule:nonzero;fill:rgb(20%,20%,20%);fill-opacity:1;" d="M 90.304688 62.40625 L 102.59375 62.40625 L 102.59375 74.695312 L 90.304688 74.695312 Z M 90.304688 62.40625 "/>
<path style=" stroke:none;fill-rule:evenodd;fill:rgb(41%,41%,41%);fill-opacity:1;" d="M 13.335938 24.992188 L 23.59375 24.992188 L 23.59375 35.238281 L 13.335938 35.238281 Z M 13.335938 24.992188 "/>
<path style=" stroke:none;fill-rule:nonzero;fill:rgb(47%,47%,47%);fill-opacity:1;" d="M 13.007812 42.503906 L 23.679688 42.503906 L 23.679688 53.175781 L 13.007812 53.175781 Z M 13.007812 42.503906 "/>
<path style=" stroke:none;fill-rule:nonzero;fill:rgb(59%,59%,59%);fill-opacity:1;" d="M 0 26.519531 L 8.257812 26.519531 L 8.257812 34.777344 L 0 34.777344 Z M 0 26.519531 "/>
<path style=" stroke:none;fill-rule:nonzero;fill:rgb(41%,41%,41%);fill-opacity:1;" d="M 14.945312 60.824219 L 23.976562 60.824219 L 23.976562 69.855469 L 14.945312 69.855469 Z M 14.945312 60.824219 "/>
<path style=" stroke:none;fill-rule:nonzero;fill:rgb(47%,47%,47%);fill-opacity:1;" d="M 12.753906 6.425781 L 22.257812 6.425781 L 22.257812 15.929688 L 12.753906 15.929688 Z M 12.753906 6.425781 "/>
<path style=" stroke:none;fill-rule:evenodd;fill:rgb(59%,59%,59%);fill-opacity:1;" d="M 26.246094 12.609375 L 37.710938 12.609375 L 37.710938 24.070312 L 26.246094 24.070312 Z M 26.246094 12.609375 "/>
<path style=" stroke:none;fill-rule:nonzero;fill:rgb(41%,41%,41%);fill-opacity:1;" d="M 1.65625 43.238281 L 8.144531 43.238281 L 8.144531 49.726562 L 1.65625 49.726562 Z M 1.65625 43.238281 "/>
</g>
</svg>
